<svg width="615" height="526" viewBox="0 0 615 526" fill="none" xmlns="http://www.w3.org/2000/svg">
<g clip-path="url(#clip0)">
<path fill-rule="evenodd" clip-rule="evenodd" d="M522 141C551.271 141 575 117.271 575 88C575 58.7289 551.271 35 522 35C492.729 35 469 58.7289 469 88C469 117.271 492.729 141 522 141Z" fill="#F2F2F2"/>
<path fill-rule="evenodd" clip-rule="evenodd" d="M522 49C523.657 49 525 47.6569 525 46C525 44.3431 523.657 43 522 43C520.343 43 519 44.3431 519 46C519 47.6569 520.343 49 522 49Z" fill="black" fill-opacity="0.1"/>
<path fill-rule="evenodd" clip-rule="evenodd" d="M480 91C481.657 91 483 89.6569 483 88C483 86.3431 481.657 85 480 85C478.343 85 477 86.3431 477 88C477 89.6569 478.343 91 480 91Z" fill="black" fill-opacity="0.1"/>
<path fill-rule="evenodd" clip-rule="evenodd" d="M564 91C565.657 91 567 89.6569 567 88C567 86.3431 565.657 85 564 85C562.343 85 561 86.3431 561 88C561 89.6569 562.343 91 564 91Z" fill="black" fill-opacity="0.1"/>
<path fill-rule="evenodd" clip-rule="evenodd" d="M522 133C523.657 133 525 131.657 525 130C525 128.343 523.657 127 522 127C520.343 127 519 128.343 519 130C519 131.657 520.343 133 522 133Z" fill="black" fill-opacity="0.1"/>
<path fill-rule="evenodd" clip-rule="evenodd" d="M522 52L524 87H520L522 52Z" fill="#AFB9C5"/>
<path fill-rule="evenodd" clip-rule="evenodd" d="M539.698 105.698L521.314 90.1421L524.142 87.3137L539.698 105.698Z" fill="#AFB9C5"/>
<path fill-rule="evenodd" clip-rule="evenodd" d="M522 92C524.209 92 526 90.2091 526 88C526 85.7909 524.209 84 522 84C519.791 84 518 85.7909 518 88C518 90.2091 519.791 92 522 92Z" fill="#C5CFD6"/>
<g opacity="0.345889">
<path fill-rule="evenodd" clip-rule="evenodd" d="M465.794 366.385C458.899 289.336 88.9644 140.624 20.2873 213.603C-48.3897 286.582 17.6347 423.545 161.556 458.617C305.478 493.69 472.688 443.434 465.794 366.385Z" fill="#F2F2F2"/>
<path fill-rule="evenodd" clip-rule="evenodd" d="M237.144 416.448C243.32 350.992 574.692 224.655 636.21 286.654C697.728 348.652 682.157 479.059 553.238 508.854C424.319 538.65 230.968 481.904 237.144 416.448Z" fill="#DDE3E9"/>
</g>
<path fill-rule="evenodd" clip-rule="evenodd" d="M38.5 159.673C61.9721 159.673 81 149.6 81 137.173C81 124.747 61.9721 114.673 38.5 114.673C15.0279 114.673 -4 124.747 -4 137.173C-4 149.6 15.0279 159.673 38.5 159.673Z" fill="#F2F2F2"/>
<path fill-rule="evenodd" clip-rule="evenodd" d="M88 152.673C88 125.059 65.8381 102.673 38.5 102.673C11.1619 102.673 -11 125.059 -11 152.673" fill="#DDE3E9"/>
<rect x="36" y="-50" width="5" height="160" fill="#DDE3E9"/>
<g opacity="0.7">
<path fill-rule="evenodd" clip-rule="evenodd" d="M116 109C133.545 109 147.768 100.87 147.768 90.8421C147.768 80.8138 133.545 72.6842 116 72.6842C98.4552 72.6842 84.2323 80.8138 84.2323 90.8421C84.2323 100.87 98.4552 109 116 109Z" fill="#F2F2F2"/>
<path fill-rule="evenodd" clip-rule="evenodd" d="M153 103.351C153 81.0657 136.435 63 116 63C95.5655 63 79 81.0657 79 103.351" fill="#DDE3E9"/>
<rect x="114" y="-50" width="5" height="136" fill="#DDE3E9"/>
</g>
<path d="M548 184.236L566.568 165.66C569.692 162.535 574.759 162.535 577.884 165.66L627.316 215.113C630.315 218.114 632 222.182 632 226.424V554" stroke="#CBCBCB" stroke-width="8"/>
<path d="M512.499 173.335C525.386 160.447 546.28 160.447 559.168 173.335V173.335C572.055 186.222 572.055 207.116 559.168 220.004L539.369 239.803L492.7 193.134L512.499 173.335Z" fill="#C5CFD6"/>
<path fill-rule="evenodd" clip-rule="evenodd" d="M512.228 220.527C525.115 233.414 537.62 241.804 540.159 239.265C542.697 236.727 534.308 224.222 521.42 211.335C508.533 198.447 496.028 190.058 493.49 192.596C490.951 195.135 499.341 207.64 512.228 220.527Z" fill="#F2F2F2"/>
<path fill-rule="evenodd" clip-rule="evenodd" d="M517.381 278.208C526.214 299.197 541.229 313.781 549.182 335.605C553.898 348.547 555.864 362.62 555.983 377.032C556.048 384.86 555.911 392.694 555.875 400.522C555.839 408.156 555.632 415.741 554.984 423.327C554.332 430.952 553.603 438.487 553.282 446.159C553.031 452.137 552.917 459.091 550.891 464.544C549.279 468.881 545.183 469.516 544.097 464.256C543.493 461.333 543.569 458.068 543.636 455.063C543.721 451.208 543.945 447.359 544.06 443.504C544.519 428.036 543.923 412.566 544.235 397.092C544.539 381.973 546.482 366.871 544.332 351.853C542.556 339.452 538.046 328.802 532.862 318.593C527.874 308.771 522.445 299.187 519.075 288.014C518.107 284.806 517.359 281.481 517 278.03C517.157 277.957 517.284 278.016 517.381 278.208Z" fill="#C1DEE2"/>
<path fill-rule="evenodd" clip-rule="evenodd" d="M514.974 319.617C516.723 320.88 517.7 322.728 518.882 324.551C520.352 326.817 522.081 328.863 523.551 331.131C526.615 335.86 529.308 340.879 532.102 345.799C537.406 355.137 541.433 365.091 543.427 375.895C545.495 387.092 546.052 398.648 546.919 410.012C547.839 422.056 548.765 434.188 548.887 446.279C548.942 451.696 549.235 457.446 548.584 462.825C548.179 466.173 546.668 469.027 543.261 469C536.025 468.942 532.627 460.927 531.208 454.354C529.119 444.674 528.702 434.393 529.033 424.494C529.432 412.558 531.504 400.802 532.4 388.912C533.35 376.325 532.814 363.96 528.486 352.109C526.3 346.12 523.763 340.274 521.484 334.325C520.514 331.792 519.719 329.19 518.409 326.831C516.951 324.208 515.142 321.826 514 319C514.324 319.206 514.649 319.411 514.974 319.617Z" fill="#89C5CC"/>
<path fill-rule="evenodd" clip-rule="evenodd" d="M598.334 294.518C598.556 294.345 598.778 294.173 599 294C598.361 296.693 597.207 298.88 596.324 301.341C595.531 303.554 595.129 306.058 594.595 308.477C593.34 314.158 591.89 319.711 590.706 325.44C588.36 336.777 588.804 348.99 590.342 361.568C591.795 373.45 594.092 385.313 595.187 397.192C596.095 407.043 596.485 417.202 595.619 426.601C595.031 432.984 593.103 440.606 587.848 439.962C585.374 439.659 584.084 436.681 583.564 433.32C582.729 427.922 582.554 422.246 582.229 416.878C581.502 404.896 581.358 392.951 581.214 381.092C581.078 369.904 580.705 358.494 581.452 347.587C582.173 337.063 584.428 327.58 587.653 318.83C589.351 314.22 590.97 309.502 592.878 305.108C593.793 303.001 594.911 301.139 595.827 299.033C596.563 297.339 597.148 295.601 598.334 294.518Z" fill="#C1DEE2"/>
<path fill-rule="evenodd" clip-rule="evenodd" d="M517.209 354.302C518.166 352.695 520.272 357.993 520.593 358.66C520.457 358.328 520.321 357.997 520.184 357.667C522.083 360.825 523.821 364.113 524.901 367.734C525.97 371.319 526.888 374.977 527.891 378.587C529.774 385.361 532.202 391.943 533.907 398.778C535.569 405.438 535.988 411.986 535.585 418.875C535.167 426.035 534.911 433.306 535.399 440.462C535.632 443.88 536.743 447.064 537.504 450.354C538.266 453.648 538.866 456.986 539.767 460.239C539.974 459.815 540 461.232 540 461.339C539.994 462.152 539.881 462.833 539.619 463.604C538.948 465.586 537.691 467.269 535.778 467.816C532.322 468.803 529.112 465.659 527.998 462.339C526.399 457.575 525.517 452.311 524.755 447.304C524.057 442.713 523.891 438.094 524.099 433.44C524.508 424.261 526.169 415.202 526.618 406.026C527.107 396.036 525.128 386.649 523.471 376.925C522.673 372.239 521.91 367.598 520.356 363.134C519.727 361.326 518.907 359.731 518.048 358.061C517.558 357.112 516.569 355.418 517.209 354.302Z" fill="#C1DEE2"/>
<path fill-rule="evenodd" clip-rule="evenodd" d="M545.252 338.697C544.856 350.142 544.172 361.5 542.646 372.824C541.089 384.38 539.3 395.897 537.802 407.463C536.343 418.722 534.815 430.168 535.018 441.585C535.168 449.993 533.774 464.219 543.113 468.369C552.572 472.572 554.601 454.623 555.222 448.699C556.412 437.333 556.027 425.847 555.449 414.419C554.856 402.689 553.866 391.02 552.64 379.334C551.277 366.353 550.208 353.314 549.349 340.296C548.925 333.857 548.82 327.429 548.937 320.988C549.048 314.911 548.817 308.77 546.656 303C546.543 303.082 546.431 303.164 546.318 303.246" fill="#69A1AC"/>
<path fill-rule="evenodd" clip-rule="evenodd" d="M594.083 374.955C592.382 377.433 590.667 379.887 589.061 382.512C586.186 387.209 583.587 392.432 582.805 399.147C581.169 413.2 582.481 428.379 582.798 442.863C582.863 445.822 582.489 448.693 583.655 451.51C584.713 454.064 586.691 456.01 588.576 456C592.611 455.977 591.995 446.095 592.002 441.746C592.014 434.123 591.159 426.422 591.233 418.806C591.306 411.26 591.765 403.694 592.859 396.528C593.967 389.275 595.589 382.309 597.729 375.81C598.026 374.908 600.158 367.937 598.144 369.139" fill="#89C5CC"/>
<path fill-rule="evenodd" clip-rule="evenodd" d="M576.262 300C573.609 300 573.625 313.226 573.546 314.925C573.257 321.055 573.325 327.188 573.143 333.319C572.744 346.701 572.254 360.2 570.243 373.426C569.161 380.547 567.907 387.636 566.557 394.702C565.204 401.789 563.387 408.867 562.497 416.044C561.642 422.943 562.125 429.977 562.242 436.91C562.359 443.885 562.57 450.874 563.484 457.788C563.709 459.494 563.974 461.195 564.257 462.891C564.492 464.305 564.355 466.058 564.754 467.401C565.393 469.552 568.133 470.256 569.978 469.92C574.97 469.009 578.159 462.74 579.865 458.16C582.043 452.311 583.199 445.967 584.339 439.804C585.631 432.821 586.388 425.732 586.743 418.623C587.466 404.175 586.539 389.712 585.504 375.31C584.928 367.301 584.263 359.327 583.246 351.367C582.232 343.441 580.932 335.55 580.086 327.601C579.471 321.825 578.865 316.04 578.467 310.241C578.371 308.859 578.291 300 576.262 300" fill="#69A1AC"/>
<path fill-rule="evenodd" clip-rule="evenodd" d="M572.941 396.139C572.508 382.253 566.927 321.259 565.657 304.467C565.339 300.264 562.282 282.765 561.885 278C560.81 279.347 560.901 300.309 560.913 305.126C560.926 309.891 560.335 314.576 560.031 319.315C559.721 324.151 552.572 386.601 551.645 391.247C549.799 400.491 548.564 409.976 547.611 419.428C546.683 428.639 545.24 438.358 546.482 447.618C546.767 449.75 547.219 451.848 547.955 453.806C548.749 455.922 549.294 457.879 549.932 460.093C550.958 463.659 552.815 466.789 555.668 468.262C561.517 471.281 564.658 464.447 566.251 458.497C568.793 448.995 570.426 439.338 571.191 429.359C572.037 418.318 573.287 407.255 572.941 396.139" fill="#89C5CC"/>
<rect x="511" y="437" width="91" height="91" rx="2" fill="white"/>
<rect x="501" y="447" width="10" height="113" rx="2" fill="#C5CFD6"/>
<rect x="551" y="447" width="10" height="113" rx="2" fill="#C5CFD6"/>
<rect x="602" y="447" width="10" height="113" rx="2" fill="#C5CFD6"/>
<path fill-rule="evenodd" clip-rule="evenodd" d="M263.997 168.54C268.794 169.919 273.175 170.033 274.95 169.032C279.398 166.522 275.161 148.952 269.621 143.062C264.08 137.173 244.27 139.267 246.965 153.155C247.9 157.975 251.021 161.664 254.884 164.322L256.186 190.265L271.498 186.162L263.997 168.54Z" fill="#784931"/>
<path fill-rule="evenodd" clip-rule="evenodd" d="M261.565 137.189C259.302 137.113 256.206 137.711 254.968 138.199C255.229 136.266 254.998 134.252 254.258 132.429C253.538 130.657 252.3 129.317 251.103 127.885C250.552 127.225 249.955 126.581 249.209 126.163C248.45 125.737 247.584 125.553 246.736 125.583C245.868 125.612 245.017 125.857 244.244 126.248C243.903 126.421 243.622 126.674 243.291 126.861C242.953 127.052 242.715 126.872 242.39 126.715C241.606 126.335 240.601 126.313 239.77 126.431C238.837 126.564 237.936 126.952 237.155 127.479C236.393 127.992 235.714 128.676 235.29 129.522C235.102 129.898 234.95 130.309 234.893 130.734C234.869 130.908 234.883 131.004 234.742 131.103C234.612 131.195 234.443 131.242 234.307 131.333C232.992 132.209 232.055 133.655 231.765 135.267C231.597 136.208 231.805 137.728 232.297 139.363C232.79 140.998 235.433 144.9 237.248 146.095C238.868 147.162 240.945 147.596 242.819 147.527C242.005 149.179 241.673 151.059 241.552 152.913C241.42 154.927 241.546 156.95 241.927 158.943C242.288 160.836 242.802 162.803 243.725 164.504C244.588 166.094 245.834 167.255 247.527 167.749C248.303 167.975 249.102 168.088 249.899 168.172C250.684 168.256 251.469 168.331 252.255 168.285C253.743 168.199 255.355 167.713 256.141 166.301C256.425 165.792 256.719 165.169 256.873 164.599C256.928 164.394 256.959 164.261 256.787 164.121C256.582 163.953 256.298 163.859 256.062 163.748C254.718 163.114 253.709 162.059 253.144 160.634C252.571 159.188 252.456 157.155 253.735 156.114C255.313 154.83 257.535 155.223 259.36 155.656C259.398 153.088 260.213 150.565 262.1 148.886C264.188 147.028 266.919 146.144 269.12 144.44C269.694 143.996 270.269 143.513 270.597 142.833C270.734 142.549 270.887 142.188 270.885 141.861C270.882 141.433 270.533 141.166 270.249 140.907C268.745 139.535 263.828 137.266 261.565 137.189Z" fill="#191847"/>
<path fill-rule="evenodd" clip-rule="evenodd" d="M259.545 243.116L283.492 327.017L300.963 388.856H313.707L295.14 243.116H259.545Z" fill="#191847"/>
<path fill-rule="evenodd" clip-rule="evenodd" d="M253.141 243.116C252.587 286.359 250.698 309.945 250.117 313.874C249.535 317.803 240.742 342.797 223.736 388.856H236.938C258.587 344.67 270.672 319.676 273.193 313.874C275.714 308.072 283.494 284.486 295.212 243.116H253.141Z" fill="#2F3676"/>
<path fill-rule="evenodd" clip-rule="evenodd" d="M222.557 400.726L223.217 386.878L237.088 386.878C246.953 393.802 262.848 398.089 262.848 398.089V400.726H237.748L229.162 399.407V400.726H222.557Z" fill="#191847"/>
<path fill-rule="evenodd" clip-rule="evenodd" d="M299.175 400.726L299.836 386.878L313.707 386.878C323.572 393.802 339.466 398.089 339.466 398.089V400.726H314.367L305.781 399.407V400.726H299.175Z" fill="#191847"/>
<path fill-rule="evenodd" clip-rule="evenodd" d="M214.077 278.652C215.876 274.666 223.236 234.349 223.236 234.349L235.052 233.988C235.052 233.988 223.587 277.443 222.656 279.998C221.447 283.318 223.859 287.995 225.494 291.166C225.747 291.656 225.982 292.111 226.181 292.519C224.1 293.538 223.045 292.432 221.932 291.266C220.676 289.949 219.347 288.555 216.383 290.06C215.238 290.642 214.159 291.32 213.105 291.982C209.464 294.269 206.118 296.371 201.375 293.673C200.623 293.245 199.757 291.565 201.66 290.162C206.401 286.666 213.198 280.601 214.077 278.652ZM335.985 239.021L313.418 225.863L309.987 237.783L331.638 244.191C338.229 250.456 341.811 252.98 342.386 251.762C342.87 250.736 342.318 249.881 341.809 249.093C341.412 248.48 341.042 247.907 341.209 247.327C341.591 246 345.547 245.719 349.312 245.613C353.078 245.507 351.815 243.962 350.828 243.237C346.776 241.36 341.828 239.954 335.985 239.021Z" fill="#B28B67"/>
<path fill-rule="evenodd" clip-rule="evenodd" d="M263.121 178.966L269.844 175.351C283.787 197.796 302.35 218.618 329.961 234.103L325.806 245.433C302.4 236.7 280.616 230.551 269.17 213.272C265.328 207.472 264.222 186.517 263.121 178.966Z" fill="#C5CFD6"/>
<path fill-rule="evenodd" clip-rule="evenodd" d="M250.587 251.266C250.587 251.266 281.834 249.104 298.876 242.751C300.283 242.226 300.084 239.754 299.118 238.222C284.08 214.372 272.921 193.216 269.773 175.363C267.138 177.329 259.728 177.584 259.728 177.584C250.019 198.266 247.787 220.425 250.587 251.266Z" fill="#323337"/>
<path fill-rule="evenodd" clip-rule="evenodd" d="M255.744 176.697C256.039 176.413 256.196 176.27 256.196 176.27L256.236 176.61L261.634 175.658C262.186 177.203 263.625 183.037 265.722 191.543C273.343 222.453 289.666 288.656 303.784 312.603L237.563 324.279C233.82 294.883 238.438 258.127 244.369 226.561C237.582 236.186 230.389 251.581 226.644 275.759L213.679 274.767C216.731 218.154 248.821 183.577 255.124 177.304C255.166 177.13 255.208 176.956 255.249 176.784L255.744 176.697Z" fill="#DDE3E9"/>
<path fill-rule="evenodd" clip-rule="evenodd" d="M156.103 261.686C159.2 265.283 162.676 267.699 164.676 267.882C169.692 268.342 176.207 252.755 175.061 245.339C173.915 237.924 156.721 228.983 151.042 240.956C149.071 245.112 149.506 249.571 151.125 253.641L137.5 274.023L152.196 279.048L156.103 261.686Z" fill="#57331F"/>
<path fill-rule="evenodd" clip-rule="evenodd" d="M179.064 240.119C177.876 243.186 174.342 244.814 171.052 243.872C168.999 243.775 166.474 243.356 163.78 242.621C163.686 243.609 163.429 244.68 162.981 245.836C162.585 246.857 162.046 247.899 161.399 248.923C161.074 248.092 160.472 247.416 159.698 247.151C157.532 246.41 155.377 247.565 154.689 249.34C153.817 251.591 154.572 253.694 156.546 254.517C153.453 257.173 149.975 258.782 147.457 257.921C142.675 256.285 141.597 249.126 144.094 242.679C144.182 242.453 144.274 242.229 144.37 242.009C142.347 242.497 140.318 243.35 138.274 244.209C133.931 246.033 129.522 247.886 124.971 246.329C115.863 243.214 118.919 224.752 131.643 229.103C140.297 232.063 144.095 234.702 147.085 237.706C148.55 236.04 150.276 234.81 152.06 234.148C152.517 233.916 153.142 233.759 153.902 233.674C154.372 233.607 154.842 233.582 155.307 233.602C157.814 233.596 161.227 234.154 164.852 235.261C165.529 235.468 166.188 235.686 166.825 235.913C168.061 232.753 171.79 231.129 175.165 232.283C178.547 233.44 180.293 236.948 179.064 240.119Z" fill="#191847"/>
<path fill-rule="evenodd" clip-rule="evenodd" d="M98.4725 387.842C98.4725 387.842 121.92 393.992 138.933 393.992C155.945 393.992 170.536 384.521 170.536 384.521C170.536 384.521 147.59 378.209 132.742 378.209C117.894 378.209 98.4725 387.842 98.4725 387.842Z" fill="#1F28CF"/>
<path fill-rule="evenodd" clip-rule="evenodd" d="M152.465 399.901C152.314 399.689 152.187 399.458 152.086 399.207C149.996 394.026 116.528 338.127 113.194 327.907H150.874C153.409 335.677 164.82 384.439 166.425 394.168C171.492 409.514 181.923 459.214 183.255 462.657C184.656 466.28 176.774 470.053 174.673 465.6C171.331 458.515 163.367 438.91 159.822 426.939C156.498 415.717 153.791 405.621 152.465 399.901Z" fill="#3D2216"/>
<path fill-rule="evenodd" clip-rule="evenodd" d="M121.637 406.726C106.336 410.352 50.3677 416.908 46.527 417.936C42.576 418.994 39.1118 411.358 43.9954 409.703C51.766 407.071 73.1776 400.99 86.1596 398.508C96.6015 396.512 106.13 394.883 112.527 393.929C111.985 377.079 109.508 336.641 111.131 327.907H144.472C142.914 336.282 129.752 397.392 127.305 403.509C126.529 405.693 124.212 406.658 121.637 406.726V406.726Z" fill="#57331F"/>
<path fill-rule="evenodd" clip-rule="evenodd" d="M45.1649 410.117C45.4206 408.947 44.6943 407.723 43.4913 407.552C42.2273 407.372 40.7342 407.227 39.8582 407.372C38.1224 407.659 34.8942 408.752 34.8942 408.752C35.2493 410.64 41.2762 442.691 41.2762 442.691C41.2762 442.691 46.1891 443.243 46.0251 440.331C45.861 437.419 45.8062 435.484 45.8062 435.484L50.2276 418.889C50.3758 418.333 50.0144 417.759 49.4415 417.641L47.0335 417.144C47.0335 417.144 45.2244 414.723 44.9142 413.073C44.7701 412.306 44.9408 411.143 45.1649 410.117Z" fill="#E4E4E4"/>
<path fill-rule="evenodd" clip-rule="evenodd" d="M174.71 464.589C173.653 464.182 172.428 464.636 172.042 465.701C171.623 466.855 171.188 468.262 171.188 469.119C171.188 470.772 171.775 473.943 171.775 473.943C173.82 473.943 208.527 473.943 208.527 473.943C208.527 473.943 209.96 469.502 206.873 469.148C203.787 468.794 201.745 468.508 201.745 468.508L184.957 461.49C184.454 461.28 183.875 461.511 183.656 462.01L182.697 464.19C182.697 464.19 179.84 465.44 178.054 465.44C177.147 465.44 175.808 465.011 174.71 464.589Z" fill="#E4E4E4"/>
<path fill-rule="evenodd" clip-rule="evenodd" d="M111.239 327.907C111.239 327.907 133.277 321.995 152.943 327.907C157.504 347.422 168.587 355.167 170.536 385.086C148.381 395.409 121.013 377.725 98.2068 387.791C91.6906 373.71 100.813 339.8 111.239 327.907Z" fill="#2B44FF"/>
<path fill-rule="evenodd" clip-rule="evenodd" d="M207.915 319.115L182.43 322.765L187.218 333.346L207.8 325.367C216.751 326.045 221.068 325.779 220.75 324.568C220.483 323.547 219.527 323.253 218.647 322.981C217.961 322.77 217.321 322.573 217.088 322.057C216.555 320.88 219.413 318.376 222.233 316.11C225.053 313.843 223.123 313.464 221.916 313.516C217.642 314.521 212.975 316.387 207.915 319.115ZM101.702 307.785L89.4887 302.138C74.5763 321.555 65.9829 332.089 63.7086 333.74C62.0408 334.951 53.3139 336.955 47.5666 337.752C45.2597 338.071 45.2364 339.821 45.6933 340.498C48.5751 344.767 52.461 344.503 56.6911 344.216C57.9157 344.133 59.1691 344.048 60.4354 344.071C63.7129 344.129 64.2255 345.846 64.71 347.469C65.1389 348.906 65.5458 350.27 67.8299 350.342C67.845 349.921 67.8512 349.448 67.858 348.937C67.9018 345.633 67.9663 340.76 70.5561 338.572C71.8852 337.449 82.2672 327.186 101.702 307.785Z" fill="#57331F"/>
<path fill-rule="evenodd" clip-rule="evenodd" d="M150.346 268.961L156.038 269.455C164.817 283.223 162.267 310.348 169.19 315.766C175.734 320.888 187.217 320.417 201.011 319.349L202.563 328.395C187.819 337.117 160.662 340.785 152.383 332.703C139.146 319.783 144.613 286.913 150.346 268.961Z" fill="#DB2721"/>
<path fill-rule="evenodd" clip-rule="evenodd" d="M108.33 327.124C108.33 327.124 141.064 335.366 156.487 339.249C158.688 339.803 159.123 336.719 159.233 335.135C160.511 316.858 151.514 294.545 158.558 269.844L145.249 264.304C128.818 278.739 118.761 299.073 108.33 327.124Z" fill="#DDE3E9"/>
<path fill-rule="evenodd" clip-rule="evenodd" d="M146.86 264.71L144.353 264.079C108.062 274.239 81.2736 297.407 63.9879 333.583L73.5534 337.979C82.3231 332.357 93.9842 322.48 108.537 308.346C102.672 317.591 97.5476 327.296 94.0953 336.825L137.444 347.738C151.508 329.964 149.853 265.464 149.853 265.464L146.86 264.71Z" fill="#FF4133"/>
<path fill-rule="evenodd" clip-rule="evenodd" d="M429.478 262.55C425.636 264.861 421.861 265.977 420.089 265.521C415.645 264.378 415.237 248.157 418.675 241.762C422.113 235.367 439.789 232.58 440.68 245.25C440.989 249.648 439.138 253.572 436.404 256.775L441.307 279.575H427.067L429.478 262.55Z" fill="#B28B67"/>
<path fill-rule="evenodd" clip-rule="evenodd" d="M446.888 241.032C447.348 240.578 447.599 239.928 447.816 239.312C448.041 238.672 448.26 238.025 448.41 237.358C448.709 236.027 448.712 234.495 447.76 233.461C446.996 232.632 445.85 232.26 444.793 232.179C444.089 232.125 443.365 232.224 442.69 232.445C442.02 232.665 441.442 233.103 440.793 233.375C440.768 231.94 440.522 230.438 439.792 229.213C439.09 228.034 437.971 227.372 436.696 227.197C435.387 227.017 434.095 227.323 432.924 227.955C432.631 228.113 432.34 228.279 432.062 228.467C431.829 228.624 431.587 228.813 431.314 228.877C431.01 228.949 430.859 228.773 430.661 228.551C430.429 228.291 430.167 228.063 429.891 227.86C428.667 226.962 427.062 226.593 425.645 227.131C424.992 227.379 424.357 227.8 423.914 228.38C423.519 228.897 423.238 229.717 422.693 230.077C422.461 230.23 422.298 230.027 422.087 229.877C421.771 229.652 421.469 229.404 421.149 229.185C420.7 228.878 420.213 228.648 419.691 228.528C418.928 228.351 417.873 228.393 417.655 229.39C417.573 229.765 417.636 230.166 417.662 230.543C417.699 231.062 417.737 231.58 417.782 232.097C417.816 232.49 417.859 232.87 417.934 233.256C417.973 233.462 418.097 233.845 418.009 234.051C417.898 234.309 417.389 234.162 417.171 234.171C416.74 234.189 416.308 234.264 415.91 234.448C415.602 234.59 415.278 234.799 415.148 235.152C415.068 235.369 415.089 235.591 415.127 235.814C415.172 236.081 415.12 236.223 415.086 236.493C414.508 236.209 412.506 235.578 412.254 236.612C412.17 236.956 412.361 237.345 412.507 237.635C412.762 238.144 413.098 238.609 413.44 239.053C414.155 239.978 415.008 240.777 415.926 241.46C414.851 241.937 414.57 243.344 415.501 244.183C415.912 244.553 416.465 244.635 416.984 244.612C417.174 244.603 417.447 244.53 417.597 244.563C417.677 244.581 417.763 244.649 417.874 244.656C418.606 244.706 419.433 244.53 420.148 244.368C421.423 244.08 422.63 243.477 423.616 242.559C423.869 242.323 424.078 242.188 424.418 242.191C424.716 242.194 425.009 242.276 425.307 242.283C426.095 242.303 426.806 241.919 427.538 241.663C427.583 242.65 427.864 243.737 428.269 244.625C428.599 245.348 429.288 245.454 429.965 245.517C432.13 245.72 434.302 245.494 436.47 245.497C434.371 245.97 432.203 246.165 430.124 246.722C429.184 246.974 429.901 247.606 430.303 248.044C430.965 248.766 431.457 249.66 431.799 250.602C432.825 249.267 434.639 248.387 436.247 248.797C438.023 249.25 439.273 251.647 438.137 253.37C437.478 254.37 436.287 254.756 435.297 255.186C436.07 255.988 436.257 257.172 436.722 258.17C436.951 258.661 437.273 259.218 437.786 259.389C437.976 259.453 438.199 259.458 438.348 259.612C438.534 259.804 438.578 260.017 438.815 260.182C439.76 260.837 441.237 260.787 442.075 259.931C442.833 259.157 442.635 257.932 442.003 257.148C443.01 256.729 444.845 256.19 444.445 254.624C446.628 254.479 451.928 250.946 448.998 248.365C450.606 247.458 452.083 245.242 451.05 243.289C450.255 241.785 448.405 241.112 446.888 241.032" fill="#191847"/>
<path fill-rule="evenodd" clip-rule="evenodd" d="M467.044 353.584H421.206L415.2 427H483.433L467.044 353.584Z" fill="#C5CFD6"/>
<path fill-rule="evenodd" clip-rule="evenodd" d="M467.044 353.584H452.946L444.508 427H483.433L467.044 353.584Z" fill="black" fill-opacity="0.1"/>
<path fill-rule="evenodd" clip-rule="evenodd" d="M396.021 368.129C401.172 379.03 409.221 405.491 409.221 405.491L402.388 408.607C402.388 408.607 385.05 380.791 374.454 361.776C374.948 366.056 375.451 370.876 375.917 375.942C377.021 387.943 375.917 413.872 375.324 421.362C374.95 426.069 368.54 425.083 367.942 421.35C367.841 420.717 367.428 418.497 366.811 415.185C363.79 398.944 355.881 356.436 355.867 346.028C355.861 341.84 364.061 338.077 368.948 341.006C372.305 337.431 378.658 335.371 382.308 341.276C384.628 345.029 390.142 355.685 396.021 368.129Z" fill="#B28B67"/>
<path fill-rule="evenodd" clip-rule="evenodd" d="M408.733 395.695L385.28 340.255C379.661 331.236 363.909 342.09 365.825 347.321C370.175 359.196 392.297 397.642 393.593 401.18L408.733 395.695Z" fill="#1F28CF"/>
<path fill-rule="evenodd" clip-rule="evenodd" d="M407.743 402.946C408.471 402.03 409.812 401.8 410.689 402.575C411.546 403.333 412.491 404.253 412.886 404.936C413.689 406.323 414.765 409.25 414.765 409.25C413.153 410.179 385.784 425.947 385.784 425.947C385.784 425.947 382.498 422.871 384.76 421.172C387.022 419.473 388.493 418.306 388.493 418.306L398.251 404.891C398.582 404.436 399.224 404.343 399.671 404.687L401.417 406.028C401.417 406.028 404.277 405.779 405.686 404.968C406.342 404.59 407.11 403.742 407.743 402.946Z" fill="#E4E4E4"/>
<path fill-rule="evenodd" clip-rule="evenodd" d="M374.365 418.035C375.453 417.605 376.729 418.075 377.1 419.184C377.463 420.268 377.82 421.537 377.82 422.326C377.82 423.928 377.285 427 377.285 427C375.423 427 343.82 427 343.82 427C343.82 427 342.516 422.697 345.326 422.354C348.137 422.01 349.996 421.734 349.996 421.734L365.169 414.984C365.683 414.755 366.285 414.996 366.5 415.516L367.34 417.55C367.34 417.55 369.942 418.761 371.568 418.761C372.327 418.761 373.418 418.41 374.365 418.035Z" fill="#E4E4E4"/>
<path fill-rule="evenodd" clip-rule="evenodd" d="M354.223 350.288C354.223 366.017 361.709 402.708 361.714 406.171L377.82 406.183C377.82 406.183 374.284 357.075 375.312 356.546C376.341 356.017 417.469 360.644 429.804 360.644C447.591 360.644 454.95 349.451 455.547 328.717H420.311C413.136 329.483 375.714 337.015 361.817 339.604C355.867 340.712 354.223 345.954 354.223 350.288Z" fill="#2B44FF"/>
<path fill-rule="evenodd" clip-rule="evenodd" d="M394.227 280.576L414.821 291.831L407.216 299.976L392.252 286.304C384.369 284.136 380.764 282.55 381.437 281.546C382.004 280.7 382.919 280.729 383.762 280.756C384.419 280.777 385.032 280.797 385.403 280.4C386.249 279.494 384.634 276.325 382.973 273.383C381.312 270.441 383.088 270.697 384.104 271.12C387.428 273.366 390.802 276.517 394.227 280.576ZM373.52 296.369L382.567 301.328L382.052 310.386C382.052 310.386 376.193 306.167 371.152 304.764C364.725 302.976 362.124 301.61 358.984 297.617C357.303 295.481 355.877 291.186 357.477 289.787C358.09 289.25 360.376 290.518 362.709 291.811C364.487 292.797 366.291 293.798 367.403 294.026C368.9 294.334 368.725 292.398 368.585 290.851C368.484 289.741 368.402 288.831 368.968 289.094C371.616 289.139 373.52 296.369 373.52 296.369Z" fill="#997659"/>
<path fill-rule="evenodd" clip-rule="evenodd" d="M424.851 289.324C417.638 289.248 408.018 287.727 397.755 281.226L393.724 290.196C400.803 297.207 410.758 302.967 419.462 302.724C426.322 302.531 429.828 294.252 424.851 289.324Z" fill="#2026A2"/>
<path fill-rule="evenodd" clip-rule="evenodd" d="M444.306 350.776C451.164 349.884 457.465 349.064 461.199 349.798C465.389 336.22 461.91 327.671 458.699 319.779C456.763 315.023 454.924 310.505 454.92 305.269C454.909 290.02 442.639 266.55 440.834 266.55H440.316H426.009H424.371C423.635 275.986 420.493 286.202 417.332 296.484C416.593 298.886 415.854 301.29 415.144 303.69C403.179 306.4 376.612 296.966 376.612 296.966C376.612 296.966 369.905 310.812 370.411 316.708C385.875 324.768 399.129 328.362 410.048 328.599C409.701 335.065 410.49 341.216 413.139 346.838C416.688 354.369 431.472 352.446 444.306 350.776Z" fill="#1F28CF"/>
</g>
<defs>
<clipPath id="clip0">
<rect width="615" height="526" fill="white"/>
</clipPath>
</defs>
</svg>
